<?xml version="1.0" standalone="no"?>
<!DOCTYPE svg PUBLIC "-//W3C//DTD SVG 20010904//EN"
 "http://www.w3.org/TR/2001/REC-SVG-20010904/DTD/svg10.dtd">
<svg version="1.0" xmlns="http://www.w3.org/2000/svg"
 width="512.000000pt" height="512.000000pt" viewBox="0 0 512.000000 512.000000"
 preserveAspectRatio="xMidYMid meet">

<g transform="translate(0.000000,512.000000) scale(0.100000,-0.100000)"
fill="#000000" stroke="none">
<path d="M1875 4469 c-39 -11 -70 -40 -94 -87 -10 -20 -125 -285 -255 -589
-171 -401 -236 -562 -236 -590 0 -82 64 -146 145 -146 83 0 119 37 182 191
l22 52 274 0 c208 0 277 -3 285 -12 5 -7 24 -47 42 -90 36 -87 72 -126 124
-138 101 -23 201 66 182 161 -7 37 -491 1167 -512 1197 -30 43 -106 67 -159
51z m120 -699 c37 -85 69 -161 72 -167 4 -10 -29 -13 -146 -13 -83 0 -151 3
-151 8 0 20 145 341 151 335 4 -5 38 -78 74 -163z"/>
<path d="M2834 4469 c-41 -12 -91 -69 -99 -111 -3 -18 -5 -297 -3 -620 3 -574
3 -587 24 -614 37 -50 70 -68 124 -68 56 0 91 20 128 74 21 31 22 43 22 197 0
91 4 163 8 161 5 -1 113 -93 240 -203 128 -110 249 -208 270 -218 62 -29 146
-3 182 56 26 41 26 112 1 153 -10 17 -83 87 -161 154 l-143 123 69 35 c90 45
162 121 211 219 38 76 38 78 38 197 0 119 -1 122 -37 199 -67 141 -194 239
-342 266 -71 13 -488 13 -532 0z m543 -321 c101 -67 99 -215 -5 -285 -40 -27
-105 -35 -237 -31 l-100 3 -3 173 -2 174 153 -4 c147 -3 155 -4 194 -30z"/>
</g>
</svg>
