<?xml version="1.0" standalone="no"?>
<!DOCTYPE svg PUBLIC "-//W3C//DTD SVG 20010904//EN"
 "http://www.w3.org/TR/2001/REC-SVG-20010904/DTD/svg10.dtd">
<svg version="1.0" xmlns="http://www.w3.org/2000/svg"
 width="512.000000pt" height="512.000000pt" viewBox="0 0 512.000000 512.000000"
 preserveAspectRatio="xMidYMid meet">

<g transform="translate(0.000000,512.000000) scale(0.100000,-0.100000)"
fill="#000000" stroke="none">
<path d="M682 5101 c-71 -24 -121 -66 -157 -132 l-30 -54 -3 -217 -3 -217 -41
15 c-22 8 -71 14 -108 14 -54 0 -78 -6 -128 -30 -114 -57 -167 -145 -167 -275
1 -116 21 -151 183 -317 l134 -137 -49 -25 c-106 -54 -166 -152 -167 -271 -1
-60 4 -80 31 -135 l32 -65 -44 -45 c-64 -65 -90 -128 -90 -221 0 -66 4 -84 32
-138 l32 -62 -40 -36 c-22 -20 -52 -60 -67 -87 -36 -69 -38 -186 -4 -261 27
-59 82 -119 135 -146 47 -25 250 -79 295 -79 l32 0 0 -230 0 -231 25 -24 c31
-32 69 -32 100 0 l25 24 0 249 0 248 53 55 c35 36 60 73 70 104 21 61 22 159
2 215 -8 24 -14 44 -13 45 2 2 13 6 25 9 l23 7 2 -655 c3 -643 3 -655 24 -682
11 -15 33 -37 48 -48 27 -21 34 -21 984 -21 902 0 959 1 990 18 18 10 42 32
52 50 20 31 20 63 20 1712 0 1667 0 1680 -20 1713 -38 62 -78 72 -312 72 -114
0 -218 -4 -231 -9 -14 -5 -51 -41 -83 -80 l-58 -71 -350 0 -351 0 -76 81 -75
80 -230 -3 c-261 -3 -278 -8 -314 -83 -19 -40 -20 -64 -20 -544 0 -398 -3
-502 -12 -499 -7 3 -43 13 -80 23 l-68 18 0 571 c0 639 -2 623 70 658 32 17
91 18 777 18 l742 0 20 26 c34 43 26 86 -20 109 -24 13 -137 15 -761 15 -684
-1 -737 -2 -786 -19z m688 -515 c34 -41 68 -77 76 -80 9 -3 199 -6 422 -6
l407 0 75 80 75 80 173 0 172 0 0 -1635 0 -1635 -910 0 -910 0 0 848 0 847 47
35 c33 24 58 55 80 98 29 56 33 73 33 142 0 69 -4 86 -33 142 -22 43 -47 74
-80 98 l-47 35 0 512 0 513 179 0 180 0 61 -74z m-957 -237 c12 -6 34 -23 50
-37 l27 -26 0 -220 0 -221 -136 135 c-137 136 -164 174 -164 230 0 44 34 104
72 129 37 23 115 28 151 10z m258 -790 c107 -28 208 -59 224 -69 67 -41 89
-144 46 -214 -22 -35 -90 -76 -127 -76 -40 0 -428 109 -452 127 -50 37 -67 71
-66 129 0 38 6 62 20 81 32 44 83 73 124 73 21 0 125 -23 231 -51z m-178 -435
c201 -50 233 -62 266 -99 76 -87 36 -224 -75 -254 -36 -10 -59 -6 -200 30
-181 47 -208 58 -234 102 -54 88 -24 194 65 233 43 19 63 17 178 -12z m-63
-464 c63 -17 126 -39 140 -49 86 -63 81 -197 -10 -258 -45 -31 -100 -29 -230
7 -88 24 -110 34 -137 63 -74 81 -49 202 51 248 53 24 51 24 186 -11z"/>
<path d="M1196 4099 l-26 -20 0 -190 c0 -176 1 -190 20 -209 22 -22 60 -26 90
-10 29 16 40 66 40 186 l0 114 126 0 c69 0 134 5 145 11 48 25 44 105 -7 128
-15 7 -89 11 -193 11 -155 0 -170 -2 -195 -21z"/>
<path d="M2126 4099 c-34 -27 -36 -77 -3 -107 21 -20 34 -22 155 -22 l132 0 0
-133 c0 -127 1 -135 23 -155 33 -31 80 -29 106 4 19 25 21 40 21 193 0 91 -3
176 -6 189 -12 44 -49 52 -232 52 -156 0 -171 -2 -196 -21z"/>
<path d="M1892 3470 c-32 -30 -30 -82 4 -109 46 -36 106 -23 125 26 28 73 -72
136 -129 83z"/>
<path d="M1584 3417 c-54 -47 -23 -131 46 -129 73 2 108 89 54 131 -35 27 -66
26 -100 -2z"/>
<path d="M2177 3319 c-28 -17 -40 -58 -26 -92 26 -61 115 -66 139 -7 29 69
-48 137 -113 99z"/>
<path d="M1392 3193 c-17 -6 -42 -57 -42 -83 0 -29 44 -70 75 -70 38 0 75 42
75 84 0 53 -57 90 -108 69z"/>
<path d="M2271 3004 c-24 -30 -26 -52 -10 -87 11 -25 47 -47 75 -47 28 0 64
47 64 85 0 72 -86 104 -129 49z"/>
<path d="M1372 2860 c-52 -49 -7 -149 61 -136 46 9 70 42 63 86 -10 64 -79 92
-124 50z"/>
<path d="M2165 2705 c-50 -49 -20 -125 48 -125 43 0 77 35 77 78 0 67 -77 96
-125 47z"/>
<path d="M1570 2610 c-30 -30 -27 -83 6 -109 55 -43 124 -14 124 52 0 66 -84
103 -130 57z"/>
<path d="M1882 2547 c-29 -31 -28 -72 3 -102 33 -33 70 -32 106 4 34 35 36 59
8 95 -27 35 -86 36 -117 3z"/>
<path d="M1220 2253 c-48 -18 -50 -25 -50 -225 0 -247 -19 -228 228 -228 167
0 191 2 205 18 29 32 31 67 4 98 -25 29 -26 29 -155 32 l-130 4 -4 130 c-3
128 -3 130 -31 154 -28 24 -39 27 -67 17z"/>
<path d="M2453 2250 c-36 -15 -43 -43 -43 -174 l0 -124 -136 -4 c-129 -3 -137
-4 -155 -27 -25 -30 -24 -76 1 -101 19 -19 33 -20 209 -20 l190 0 20 26 c19
25 21 40 21 195 0 185 -6 212 -53 229 -16 5 -30 10 -31 9 -1 0 -11 -4 -23 -9z"/>
<path d="M2477 5100 c-34 -27 -37 -80 -7 -110 19 -19 33 -20 260 -20 262 0
288 -4 328 -55 l22 -28 0 -2018 0 -2017 -26 -31 c-14 -17 -42 -35 -62 -41 -26
-8 -383 -10 -1152 -8 -1087 3 -1116 3 -1144 23 -53 35 -56 58 -56 368 0 271
-1 284 -20 305 -30 32 -82 30 -110 -5 -21 -26 -21 -34 -18 -333 3 -292 4 -307
25 -346 36 -67 70 -101 131 -131 l57 -28 670 -5 670 -5 191 -82 c325 -138 348
-153 585 -374 88 -82 170 -151 182 -154 12 -3 485 -4 1050 -3 l1029 3 19 24
c17 21 19 42 19 254 l0 230 -138 141 c-75 78 -157 162 -181 188 l-45 48 28 29
c17 18 28 40 28 61 1 29 -16 49 -159 191 -178 177 -186 182 -248 128 l-35 -31
-147 138 c-81 77 -186 175 -232 220 l-85 81 -8 149 c-7 132 -11 150 -30 171
-30 32 -83 28 -110 -8 -18 -24 -18 -34 -8 -199 6 -95 14 -179 18 -186 4 -7
102 -101 217 -209 116 -108 226 -212 245 -231 l35 -34 -505 -505 -505 -505
-103 0 -102 0 -134 126 c-170 160 -265 232 -390 294 l-100 49 300 3 c258 3
304 6 337 21 51 24 114 82 140 131 l22 41 5 1220 6 1220 27 110 c43 175 137
307 207 290 40 -9 74 -39 87 -76 8 -24 12 -156 12 -458 l1 -423 56 -212 c58
-219 75 -256 120 -256 36 0 54 10 69 40 16 31 21 6 -55 296 l-40 151 0 411 c0
252 -4 430 -11 461 -13 64 -58 133 -109 170 -100 72 -219 61 -316 -31 l-54
-51 0 614 0 614 -24 50 c-12 28 -42 67 -66 88 -76 70 -85 71 -375 75 -254 3
-261 3 -288 -18z m1743 -4535 l-415 -415 -162 0 c-90 0 -163 3 -163 7 0 5 222
230 492 500 l493 493 85 -85 85 -85 -415 -415z m750 -262 l0 -153 -472 0 -473
0 314 314 315 315 157 -162 158 -162 1 -152z"/>
<path d="M1681 1062 c-30 -24 -31 -76 -2 -105 21 -21 30 -22 264 -25 133 -2
252 0 265 3 32 8 62 41 62 69 0 13 -9 35 -21 50 l-20 26 -264 0 c-236 0 -265
-2 -284 -18z"/>
</g>
</svg>
