<?xml version="1.0" standalone="no"?>
<!DOCTYPE svg PUBLIC "-//W3C//DTD SVG 20010904//EN"
 "http://www.w3.org/TR/2001/REC-SVG-20010904/DTD/svg10.dtd">
<svg version="1.0" xmlns="http://www.w3.org/2000/svg"
 width="64.000000pt" height="64.000000pt" viewBox="0 0 64.000000 64.000000"
 preserveAspectRatio="xMidYMid meet">

<g transform="translate(0.000000,64.000000) scale(0.100000,-0.100000)"
fill="#000000" stroke="none">
<path d="M72 628 c-7 -7 -12 -24 -12 -39 0 -21 -5 -28 -22 -31 -29 -4 -36 -43
-13 -68 12 -13 14 -23 6 -37 -5 -10 -15 -47 -20 -82 -11 -69 -6 -85 30 -96 13
-4 19 -16 19 -36 0 -16 5 -29 10 -29 6 0 10 15 10 33 0 17 5 39 10 47 7 10 10
-7 10 -58 l0 -73 133 3 132 3 3 195 c1 107 0 205 -3 218 -4 17 -12 22 -40 22
-18 0 -37 -4 -40 -10 -8 -13 -88 -13 -102 1 -6 6 -26 9 -44 7 l-34 -3 -3 -67
c-4 -95 -22 -85 -22 12 l0 80 100 0 c60 0 100 4 100 10 0 15 -193 13 -208 -2z
m103 -58 c3 -5 30 -10 60 -10 30 0 57 5 60 10 3 6 17 10 31 10 l24 0 -2 -202
-3 -203 -112 -3 -113 -3 0 106 c0 66 5 113 12 125 10 16 10 24 0 40 -6 11 -12
47 -12 80 0 57 1 60 24 60 14 0 28 -4 31 -10z m-115 -57 c0 -25 0 -26 -20 -8
-15 14 -17 21 -9 31 16 19 29 8 29 -23z m54 -83 c7 -7 6 -14 -1 -21 -16 -16
-67 3 -72 26 -3 15 2 17 30 11 18 -3 38 -11 43 -16z m-30 -46 c9 -3 16 -13 16
-21 0 -22 -64 -13 -68 10 -4 18 21 23 52 11z m-9 -75 c0 -8 -7 -15 -15 -16
-23 -4 -44 13 -37 31 8 19 52 7 52 -15z"/>
<path d="M151 483 c0 -23 2 -25 8 -9 4 11 16 23 27 27 16 6 14 8 -8 8 -24 1
-28 -3 -27 -26z"/>
<path d="M278 503 c14 -3 22 -12 22 -24 0 -10 5 -19 10 -19 6 0 10 11 10 25 0
22 -4 25 -32 24 -24 -1 -27 -3 -10 -6z"/>
<path d="M235 430 c-3 -5 -1 -10 4 -10 6 0 11 5 11 10 0 6 -2 10 -4 10 -3 0
-8 -4 -11 -10z"/>
<path d="M270 410 c0 -5 5 -10 11 -10 5 0 7 5 4 10 -3 6 -8 10 -11 10 -2 0 -4
-4 -4 -10z"/>
<path d="M170 390 c0 -5 5 -10 10 -10 6 0 10 5 10 10 0 6 -4 10 -10 10 -5 0
-10 -4 -10 -10z"/>
<path d="M280 370 c0 -5 5 -10 10 -10 6 0 10 5 10 10 0 6 -4 10 -10 10 -5 0
-10 -4 -10 -10z"/>
<path d="M170 349 c0 -5 5 -7 10 -4 6 3 10 8 10 11 0 2 -4 4 -10 4 -5 0 -10
-5 -10 -11z"/>
<path d="M270 329 c0 -5 5 -7 10 -4 6 3 10 8 10 11 0 2 -4 4 -10 4 -5 0 -10
-5 -10 -11z"/>
<path d="M235 310 c3 -5 8 -10 11 -10 2 0 4 5 4 10 0 6 -5 10 -11 10 -5 0 -7
-4 -4 -10z"/>
<path d="M151 253 c-1 -26 3 -33 18 -33 11 0 23 5 26 10 3 6 -1 10 -10 10 -8
0 -20 10 -25 23 -8 20 -9 19 -9 -10z"/>
<path d="M300 261 c0 -12 -8 -21 -22 -24 -20 -3 -21 -4 -5 -11 9 -5 24 -6 32
-2 17 6 21 56 5 56 -5 0 -10 -9 -10 -19z"/>
<path d="M310 631 c0 -5 17 -11 38 -13 l37 -3 0 -255 0 -255 -152 -3 -153 -3
0 41 c0 22 -4 40 -10 40 -14 0 -12 -74 2 -88 7 -7 44 -12 95 -12 88 0 152 -21
189 -61 15 -17 31 -19 151 -19 l133 0 0 32 c0 17 -7 40 -17 50 -9 10 -21 28
-27 40 -6 13 -22 28 -34 34 -36 18 -72 56 -72 75 0 10 -4 21 -10 24 -6 4 -10
-6 -10 -23 0 -18 10 -38 30 -57 l30 -29 -62 -63 c-34 -35 -68 -63 -74 -63 -6
0 -28 13 -48 29 l-37 30 43 3 43 3 5 171 c4 127 9 175 19 188 21 25 31 3 31
-74 0 -36 4 -72 10 -80 15 -24 20 -6 10 31 -6 18 -10 60 -10 91 0 59 -3 63
-42 59 -15 -2 -18 10 -20 81 l-3 83 -42 3 c-24 2 -43 -1 -43 -7z m264 -498
c11 -11 -96 -113 -118 -113 -16 0 -7 13 39 60 61 61 66 65 79 53z m28 -60 c10
-9 18 -24 18 -35 0 -15 -8 -18 -57 -18 l-57 0 34 35 c39 41 38 40 62 18z"/>
<path d="M215 130 c-4 -6 8 -10 30 -10 22 0 34 4 30 10 -3 6 -17 10 -30 10
-13 0 -27 -4 -30 -10z"/>
</g>
</svg>
