<?xml version="1.0" standalone="no"?>
<!DOCTYPE svg PUBLIC "-//W3C//DTD SVG 20010904//EN"
 "http://www.w3.org/TR/2001/REC-SVG-20010904/DTD/svg10.dtd">
<svg version="1.0" xmlns="http://www.w3.org/2000/svg"
 width="32.000000pt" height="32.000000pt" viewBox="0 0 32.000000 32.000000"
 preserveAspectRatio="xMidYMid meet">

<g transform="translate(0.000000,32.000000) scale(0.100000,-0.100000)"
fill="#000000" stroke="none">
<path d="M4 305 c-12 -31 4 -45 53 -45 l48 -1 -30 -16 c-38 -20 -45 -31 -45
-71 0 -28 7 -37 47 -62 53 -34 43 -41 -11 -9 -20 12 -36 16 -36 10 0 -6 17
-19 38 -30 l37 -20 -47 -1 -47 0 -4 98 c-2 77 -3 71 -3 -28 l1 -125 120 -2
c82 -1 109 1 85 7 -76 18 -105 102 -54 154 37 37 86 35 125 -3 17 -18 29 -41
30 -58 1 -18 3 -22 6 -10 11 44 -42 107 -91 107 -11 0 -16 14 -18 58 l-3 57
-98 3 c-80 2 -98 0 -103 -13z m196 -10 c0 -12 -17 -15 -95 -15 -78 0 -95 3
-95 15 0 12 17 15 95 15 78 0 95 -3 95 -15z m0 -65 c0 -35 -3 -36 -28 -12 -10
9 -27 22 -38 29 -17 10 -14 12 24 12 40 1 42 0 42 -29z m-61 -4 l25 -14 -31
-15 c-27 -15 -32 -15 -53 0 -22 15 -22 17 -5 30 23 16 33 16 64 -1z m-38 -70
c0 -21 0 -21 9 1 8 19 38 43 55 43 4 0 -5 -14 -19 -31 -14 -17 -26 -37 -26
-45 0 -18 -20 -18 -48 2 -14 10 -22 25 -22 44 0 28 1 29 25 18 15 -6 25 -20
26 -32z m49 -131 c11 -13 3 -15 -64 -15 -61 0 -76 3 -76 15 0 12 14 15 64 15
44 0 67 -5 76 -15z"/>
<path d="M88 293 c7 -3 16 -2 19 1 4 3 -2 6 -13 5 -11 0 -14 -3 -6 -6z"/>
<path d="M98 23 c7 -3 16 -2 19 1 4 3 -2 6 -13 5 -11 0 -14 -3 -6 -6z"/>
<path d="M192 168 c-7 -7 -12 -22 -12 -35 0 -16 -4 -21 -15 -17 -23 9 -21 -61
3 -71 34 -15 92 -12 108 6 18 20 15 65 -4 62 -7 -2 -12 7 -12 20 0 27 -17 47
-40 47 -9 0 -21 -5 -28 -12z m38 -28 c0 -5 -4 -10 -10 -10 -5 0 -10 5 -10 10
0 6 5 10 10 10 6 0 10 -4 10 -10z m-50 -66 c0 -14 -4 -23 -10 -19 -5 3 -10 15
-10 26 0 10 5 19 10 19 6 0 10 -12 10 -26z m100 7 c0 -11 -4 -23 -10 -26 -6
-4 -10 5 -10 19 0 14 5 26 10 26 6 0 10 -9 10 -19z m-70 -23 c0 -5 -4 -8 -10
-8 -5 0 -10 10 -10 23 0 18 2 19 10 7 5 -8 10 -18 10 -22z m40 7 c0 -8 -7 -15
-15 -15 -9 0 -12 6 -9 15 4 8 10 15 15 15 5 0 9 -7 9 -15z"/>
<path d="M296 53 c-6 -14 -5 -15 5 -6 7 7 10 15 7 18 -3 3 -9 -2 -12 -12z"/>
<path d="M260 20 c-9 -6 -10 -10 -3 -10 6 0 15 5 18 10 8 12 4 12 -15 0z"/>
</g>
</svg>
